<svg xmlns="http://www.w3.org/2000/svg" viewBox="0 0 247.5 95.16"><defs><style>.cls-1{fill:#e6e6e6;}.cls-2{fill:none;stroke:#000;stroke-miterlimit:10;stroke-width:5px;}.cls-3{fill:#f15a24;}.cls-4{font-size:18.5px;font-family:Barlow-SemiBold, Barlow;font-weight:600;}.cls-5{letter-spacing:-0.01em;}.cls-6{letter-spacing:0em;}.cls-7{letter-spacing:-0.06em;}.cls-8{letter-spacing:0em;}</style></defs><g id="Layer_2" data-name="Layer 2"><g id="Main"><rect class="cls-1" x="2.5" y="2.5" width="242.5" height="90.16" rx="10"/><rect class="cls-2" x="2.5" y="2.5" width="242.5" height="90.16" rx="10"/><path class="cls-3" d="M53.21,32.07a15.31,15.31,0,0,1-.56,3.8,22.35,22.35,0,0,1-2.42,5.57,31.64,31.64,0,0,1-5.13,6.39,35.37,35.37,0,0,1-6.18,4.8,30.55,30.55,0,0,1-6.34,3,23.81,23.81,0,0,1-3.92.94,17.41,17.41,0,0,1-3.23.17A11.76,11.76,0,0,1,21.58,56a8.08,8.08,0,0,1-5-5.15,9.14,9.14,0,0,1-.44-2.2,13.79,13.79,0,0,1,.42-4.52,21.46,21.46,0,0,1,2.3-5.49,30.54,30.54,0,0,1,4.52-6,36.16,36.16,0,0,1,6.14-5.07,31,31,0,0,1,6.38-3.21,24.12,24.12,0,0,1,3.85-1.07A18,18,0,0,1,43.84,23a11.72,11.72,0,0,1,4,.82,8.09,8.09,0,0,1,4.81,4.95,9.1,9.1,0,0,1,.47,2.19C53.17,31.3,53.19,31.69,53.21,32.07Zm-4.44-4.6c0-.19-.05-.24-.2-.2a.76.76,0,0,0-.21.08,2.93,2.93,0,0,0-.43.23c-.45.3-.9.59-1.33.9-1.61,1.17-3.16,2.42-4.69,3.68-2.94,2.43-5.82,4.93-8.65,7.47-3.07,2.75-6.09,5.54-9,8.44-1,1-2,2-2.86,3-.25.29-.47.6-.7.9a1.17,1.17,0,0,0-.14.3c0,.11,0,.15.13.12a1.63,1.63,0,0,0,.37-.13c.36-.19.71-.38,1.05-.58,1.32-.8,2.58-1.67,3.83-2.56q4.62-3.32,9-6.94c2.36-2,4.65-4,6.83-6.13a65.84,65.84,0,0,0,4.76-5.13,21.81,21.81,0,0,0,1.68-2.27c.18-.29.33-.6.49-.9A2,2,0,0,0,48.77,27.47Z"/><path class="cls-3" d="M56.87,15.92a18,18,0,0,1,3.66,1.78,24,24,0,0,1,4.82,4,30.72,30.72,0,0,1,4.74,6.64,31.56,31.56,0,0,1,2.77,7,25.4,25.4,0,0,1,.84,6.54,19.59,19.59,0,0,1-.38,3.73,14.14,14.14,0,0,1-.93,2.87,10.15,10.15,0,0,1-2.07,3.1,8.89,8.89,0,0,1-6.92,2.6A12,12,0,0,1,61,53.84a16.7,16.7,0,0,1-4.44-1.91,24,24,0,0,1-4.79-3.87,30.81,30.81,0,0,1-4.49-6,32.08,32.08,0,0,1-3-7.08,26,26,0,0,1-1.09-6.65,19.28,19.28,0,0,1,.23-3.72A14.33,14.33,0,0,1,44.44,21a10.32,10.32,0,0,1,2.19-3.23,8.81,8.81,0,0,1,6.66-2.5,10.68,10.68,0,0,1,2.39.34C56.08,15.69,56.47,15.81,56.87,15.92Zm-6.18,2.3c-.19-.07-.26,0-.27.1a.5.5,0,0,0,0,.21,2.34,2.34,0,0,0,.09.46c.14.49.28,1,.45,1.46.64,1.81,1.38,3.58,2.14,5.34,1.46,3.39,3,6.75,4.63,10.09,1.75,3.61,3.55,7.19,5.49,10.71.66,1.2,1.33,2.38,2.09,3.52.21.31.44.61.67.91a1,1,0,0,0,.26.23c.09.07.15,0,.16-.07a1.15,1.15,0,0,0,0-.37,11.13,11.13,0,0,0-.23-1.12c-.36-1.42-.81-2.81-1.29-4.2-1.18-3.44-2.52-6.83-4-10.18-1.19-2.73-2.47-5.41-3.89-8a63.31,63.31,0,0,0-3.58-5.89,22.25,22.25,0,0,0-1.73-2.24c-.24-.26-.49-.5-.75-.74A2.08,2.08,0,0,0,50.69,18.22Z"/><path class="cls-3" d="M58.49,44.57A15.81,15.81,0,0,1,60,48.13a21.42,21.42,0,0,1,.88,5.95,29,29,0,0,1-1,7.9,31.63,31.63,0,0,1-2.79,7,27.63,27.63,0,0,1-3.92,5.49,21.24,21.24,0,0,1-2.9,2.61,17.29,17.29,0,0,1-2.71,1.64,11.78,11.78,0,0,1-3.75,1.11,8.93,8.93,0,0,1-7.09-2.17A10.53,10.53,0,0,1,35.17,76a14.06,14.06,0,0,1-2.05-4.12A21,21,0,0,1,32.17,66a27.6,27.6,0,0,1,.75-7.24,31.44,31.44,0,0,1,2.61-7.23,27.66,27.66,0,0,1,3.81-5.72,21.6,21.6,0,0,1,2.78-2.71A16.56,16.56,0,0,1,45.48,41a11.63,11.63,0,0,1,3.93-1.14,8.87,8.87,0,0,1,6.82,2.08,9.69,9.69,0,0,1,1.58,1.69C58.05,43.93,58.27,44.25,58.49,44.57Zm-6.32-2c-.09-.17-.17-.18-.27-.08a.8.8,0,0,0-.15.17,3.34,3.34,0,0,0-.25.4c-.23.46-.46.92-.67,1.39-.77,1.75-1.44,3.55-2.1,5.35-1.25,3.46-2.41,6.95-3.51,10.46-1.19,3.8-2.32,7.62-3.3,11.47-.33,1.3-.64,2.61-.86,3.93-.06.37-.09.73-.13,1.1a.93.93,0,0,0,0,.33c0,.1.09.12.18,0a1.41,1.41,0,0,0,.25-.29c.21-.32.41-.65.6-1,.72-1.3,1.34-2.64,2-4q2.25-5,4.07-10.15c1-2.79,1.9-5.61,2.65-8.47a60.53,60.53,0,0,0,1.39-6.63,21.27,21.27,0,0,0,.24-2.75c0-.34,0-.67-.06-1A1,1,0,0,0,52.17,42.62Z"/><text class="cls-4" transform="translate(99.74 52.32) scale(1.08 1)">H<tspan class="cls-5" x="11.79" y="0">o</tspan><tspan x="21.87" y="0">t B</tspan><tspan class="cls-6" x="44" y="0">e</tspan><tspan x="53.92" y="0">ans </tspan><tspan class="cls-7" x="86.47" y="0">W</tspan><tspan class="cls-8" x="101.66" y="0">eb</tspan></text></g></g></svg>