<svg xmlns="http://www.w3.org/2000/svg" viewBox="0 0 261 261"><defs><style>.cls-1{fill:#e6e6e6;stroke:#000;stroke-miterlimit:10;stroke-width:5px;}.cls-2{fill:#f15a24;}</style></defs><g id="Layer_2" data-name="Layer 2"><g id="Circle_no_text" data-name="Circle no text"><circle class="cls-1" cx="130.5" cy="130.5" r="128"/><path class="cls-2" d="M154.64,85.41a45,45,0,0,1-1.62,11A64.71,64.71,0,0,1,146,112.63a91,91,0,0,1-14.9,18.58,102.41,102.41,0,0,1-18,14,88,88,0,0,1-18.43,8.61,67.72,67.72,0,0,1-11.37,2.72,51,51,0,0,1-9.4.51,34.3,34.3,0,0,1-11.19-2.2c-7.35-2.88-12.16-7.9-14.52-14.95a26.92,26.92,0,0,1-1.28-6.4,39.65,39.65,0,0,1,1.24-13.14,62.68,62.68,0,0,1,6.66-16A88.71,88.71,0,0,1,68,87.08,102,102,0,0,1,85.82,72.34,90.94,90.94,0,0,1,104.34,63a73.08,73.08,0,0,1,11.22-3.11,52.7,52.7,0,0,1,11.83-.94,34.52,34.52,0,0,1,11.7,2.37,23.5,23.5,0,0,1,14,14.39,25.49,25.49,0,0,1,1.36,6.38C154.52,83.18,154.57,84.29,154.64,85.41ZM141.73,72c0-.57-.15-.7-.57-.59a2.8,2.8,0,0,0-.63.23,11.45,11.45,0,0,0-1.24.68c-1.3.85-2.6,1.7-3.86,2.61-4.7,3.39-9.18,7-13.63,10.7-8.56,7.06-16.92,14.33-25.16,21.71-8.92,8-17.71,16.12-26.17,24.53-2.86,2.85-5.69,5.72-8.31,8.77-.71.84-1.37,1.73-2,2.61a2.92,2.92,0,0,0-.42.87c-.1.31,0,.44.37.35a4.42,4.42,0,0,0,1.09-.39c1-.54,2.07-1.09,3.06-1.69,3.83-2.31,7.49-4.85,11.11-7.44q13.47-9.6,26.09-20.16C108.3,109.12,115,103.21,121.3,97a190,190,0,0,0,13.82-14.89,63.91,63.91,0,0,0,4.9-6.62c.53-.84,1-1.73,1.42-2.6A5,5,0,0,0,141.73,72Z"/><path class="cls-2" d="M165.28,38.45a53.5,53.5,0,0,1,10.65,5.17,71.08,71.08,0,0,1,14,11.66,90.19,90.19,0,0,1,13.77,19.31,91.59,91.59,0,0,1,8,20.42,73.6,73.6,0,0,1,2.46,19,55.52,55.52,0,0,1-1.12,10.83,41.46,41.46,0,0,1-2.69,8.37,29.85,29.85,0,0,1-6,9c-5.43,5.42-12.16,7.89-20.12,7.55a33.67,33.67,0,0,1-6.92-1.06,47.9,47.9,0,0,1-12.92-5.56,69.18,69.18,0,0,1-13.93-11.25,88.52,88.52,0,0,1-13-17.36A93.4,93.4,0,0,1,128.57,94a76.22,76.22,0,0,1-3.18-19.33,58.6,58.6,0,0,1,.67-10.83,42.29,42.29,0,0,1,3.08-10.63,29.57,29.57,0,0,1,6.38-9.39,25.65,25.65,0,0,1,19.37-7.27,31.74,31.74,0,0,1,6.93,1C163,37.79,164.13,38.13,165.28,38.45Zm-18,6.69c-.57-.21-.76-.11-.79.3a2.59,2.59,0,0,0,0,.62,9.79,9.79,0,0,0,.26,1.31c.43,1.42.84,2.85,1.33,4.26,1.85,5.25,4,10.39,6.22,15.52,4.24,9.87,8.76,19.63,13.45,29.32,5.08,10.5,10.31,20.92,16,31.16,1.91,3.46,3.86,6.91,6.06,10.22.61.92,1.29,1.79,2,2.66a3.36,3.36,0,0,0,.74.66c.27.19.46.11.48-.21a4.34,4.34,0,0,0,0-1.08c-.2-1.08-.4-2.17-.67-3.24-1.05-4.12-2.38-8.18-3.76-12.22-3.44-10-7.32-19.86-11.57-29.59-3.46-7.93-7.18-15.74-11.33-23.38a177.35,177.35,0,0,0-10.39-17.12,64.42,64.42,0,0,0-5-6.52c-.67-.75-1.42-1.44-2.16-2.13A5.31,5.31,0,0,0,147.32,45.14Z"/><path class="cls-2" d="M170,121.76a45.9,45.9,0,0,1,4.5,10.33,62.29,62.29,0,0,1,2.55,17.3,83.85,83.85,0,0,1-3,23,92.51,92.51,0,0,1-8.13,20.4,79.09,79.09,0,0,1-11.39,16,61.43,61.43,0,0,1-8.42,7.59,46.64,46.64,0,0,1-7.89,4.77,34.12,34.12,0,0,1-10.89,3.24,25.87,25.87,0,0,1-20.61-6.3,30,30,0,0,1-4.54-5,41.33,41.33,0,0,1-6-12,61.12,61.12,0,0,1-2.77-16.93,81.7,81.7,0,0,1,2.18-21.06,92.34,92.34,0,0,1,7.6-21,81,81,0,0,1,11.08-16.65,65,65,0,0,1,8.06-7.85,48.6,48.6,0,0,1,9.78-6.26A33.83,33.83,0,0,1,143.58,108a25.86,25.86,0,0,1,19.84,6.07A28.07,28.07,0,0,1,168,119C168.7,119.88,169.34,120.83,170,121.76Zm-18.37-5.67c-.28-.5-.51-.54-.81-.25a2.79,2.79,0,0,0-.42.49c-.25.38-.51.76-.72,1.16-.66,1.34-1.35,2.68-2,4-2.26,5.11-4.21,10.33-6.1,15.56-3.66,10.07-7,20.22-10.22,30.42-3.46,11.05-6.74,22.14-9.58,33.34-1,3.78-1.88,7.58-2.52,11.43-.17,1.05-.26,2.13-.36,3.2a3,3,0,0,0,.1.94c.08.31.28.36.52.14a4.45,4.45,0,0,0,.73-.84c.61-.95,1.21-1.9,1.75-2.88,2.09-3.77,3.91-7.66,5.67-11.57q6.54-14.53,11.84-29.5c2.9-8.11,5.52-16.31,7.7-24.61a174.8,174.8,0,0,0,4-19.29,61.26,61.26,0,0,0,.7-8c0-1-.08-1.95-.15-2.92A4.83,4.83,0,0,0,151.63,116.09Z"/></g></g></svg>